<svg width="32" height="32" viewBox="0 0 32 32" fill="none" xmlns="http://www.w3.org/2000/svg">
<rect width="32" height="32" rx="8" fill="black"/>
<path d="M13 22V9L25 7V20" stroke="white" stroke-width="2" stroke-linecap="round" stroke-linejoin="round"/>
<path d="M10 25C11.6569 25 13 23.6569 13 22C13 20.3431 11.6569 19 10 19C8.34315 19 7 20.3431 7 22C7 23.6569 8.34315 25 10 25Z" stroke="white" stroke-width="2" stroke-linecap="round" stroke-linejoin="round"/>
<path d="M22 23C23.6569 23 25 21.6569 25 20C25 18.3431 23.6569 17 22 17C20.3431 17 19 18.3431 19 20C19 21.6569 20.3431 23 22 23Z" stroke="white" stroke-width="2" stroke-linecap="round" stroke-linejoin="round"/>
</svg>
